<svg xmlns="http://www.w3.org/2000/svg" xmlns:xlink="http://www.w3.org/1999/xlink" xmlns:lucid="lucid" width="1835.68" height="1532.03"><g transform="translate(0 0)" lucid:page-tab-id="m-5o7ONTd-nK"><path d="M0 0h1835.68v1532.03H0z" fill="#fff"/><path d="M84.3 600V199.07h164.44V600z" stroke="#b2b2b2" stroke-width="4" fill="#4397ff"/><path d="M84.3 600h164.44v180H84.3z" stroke="#b2b2b2" stroke-width="4" fill="#3fb8b9"/><path d="M84.3 780h164.44v187.1H84.3z" stroke="#b2b2b2" stroke-width="4" fill="#ff8839"/><path d="M84.3 967.1h164.44V1140H84.3z" stroke="#b2b2b2" stroke-width="4" fill="#eb6b6b"/><path d="M84.3 1140h164.44v180H84.3z" stroke="#b2b2b2" stroke-width="4" fill="#c92d39"/><path d="M248.74 1520H84.3v-200h164.44z" stroke="#b2b2b2" stroke-width="4" fill="#282c33"/><path d="M248.74 199.07H1820V600H248.74zM248.74 600H1820v180H248.74zM248.74 780H1820v187.1H248.74zM248.74 967.1H1820V1140H248.74zM248.74 1140H1820v180H248.74zM1820 1320v200H248.74v-200z" stroke="#b2b2b2" stroke-width="4" fill="none"/><use xlink:href="#a" transform="matrix(1,0,0,1,84.29623759737103,199.07457409865583) translate(44.18171726902294 206.02335606933002)"/><use xlink:href="#b" transform="matrix(1,0,0,1,84.29623759737103,600) translate(25.080110862589933 95.52335606933003)"/><use xlink:href="#c" transform="matrix(1,0,0,1,84.29623759737103,780) translate(8.279902818377778 99.52335606933003)"/><use xlink:href="#d" transform="matrix(1,0,0,1,84.29623759737103,967.1019444779342) translate(18.214272415297756 92.02335606933003)"/><use xlink:href="#e" transform="matrix(1,0,0,1,84.29623759737103,1140) translate(61.8641280187531 78.95328786133994)"/><use xlink:href="#f" transform="matrix(1,0,0,1,84.29623759737103,1140) translate(9.00867896641438 112.09342427732011)"/><use xlink:href="#g" transform="matrix(1,0,0,1,84.29623759737103,1320) translate(61.8641280187531 105.52335606933003)"/><path d="M674.28 1008c0-4.42 3.58-8 8-8H1212c4.42 0 8 3.58 8 8v104c0 4.42-3.58 8-8 8H682.28c-4.42 0-8-3.58-8-8z" stroke="#000" stroke-opacity="0" stroke-width="2" fill="#eb6b6b"/><use xlink:href="#h" transform="matrix(1,0,0,1,679.8416816132524,1005.561) translate(15.532440625584425 59.58193886379071)"/><path d="M674.28 828c0-4.42 3.58-8 8-8H1212c4.42 0 8 3.58 8 8v104c0 4.42-3.58 8-8 8H682.28c-4.42 0-8-3.58-8-8z" stroke="#000" stroke-opacity="0" stroke-width="2" fill="#ff8839"/><use xlink:href="#i" transform="matrix(1,0,0,1,679.8416816132524,825.561) translate(5.459796983625463 61.80685971594768)"/><path d="M452.2 71.24c0-4.42 3.57-8 8-8h836.74c4.42 0 8 3.58 8 8v39.48c0 4.42-3.58 8-8 8H460.2c-4.43 0-8-3.58-8-8z" stroke="#000" stroke-opacity="0" stroke-width="2" fill="#fff" fill-opacity="0"/><use xlink:href="#j" transform="matrix(1,0,0,1,456.1891668241444,67.23829351096167) translate(198.1285185185186 35.54666666666666)"/><use xlink:href="#k" transform="matrix(1,0,0,1,456.1891668241444,67.23829351096167) translate(367.9951851851852 35.54666666666666)"/><use xlink:href="#l" transform="matrix(1,0,0,1,456.1891668241444,67.23829351096167) translate(413.41740740740744 35.54666666666666)"/><use xlink:href="#m" transform="matrix(1,0,0,1,456.1891668241444,67.23829351096167) translate(444.5285185185185 35.54666666666666)"/><path d="M452.2 119.56c0-4.42 3.57-8 8-8h837.7c4.4 0 8 3.58 8 8v2.84c0 4.42-3.6 8-8 8H460.2c-4.43 0-8-3.58-8-8z" stroke="#000" stroke-opacity="0" stroke-width="2" fill="#fff" fill-opacity="0"/><path d="M380 228c0-4.42 3.58-8 8-8h364c4.42 0 8 3.58 8 8v104c0 4.42-3.58 8-8 8H388c-4.42 0-8-3.58-8-8z" stroke="#000" stroke-opacity="0" stroke-width="2" fill="#4397ff"/><use xlink:href="#n" transform="matrix(1,0,0,1,385.561,225.561) translate(18.149911582235145 59.58193886379071)"/><path d="M380 368c0-4.42 3.58-8 8-8h364c4.42 0 8 3.58 8 8v104c0 4.42-3.58 8-8 8H388c-4.42 0-8-3.58-8-8z" stroke="#000" stroke-opacity="0" stroke-width="2" fill="#4397ff"/><use xlink:href="#o" transform="matrix(1,0,0,1,385.561,365.561) translate(47.79983628770066 59.58193886379071)"/><path d="M882.86 297.54c0-4.42 3.58-8 8-8h364c4.42 0 8 3.58 8 8v104c0 4.42-3.58 8-8 8h-364c-4.42 0-8-3.58-8-8z" stroke="#000" stroke-opacity="0" stroke-width="2" fill="#4397ff"/><use xlink:href="#p" transform="matrix(1,0,0,1,888.4206591942592,295.0982870493279) translate(35.56876900817912 59.58193886379071)"/><path d="M762 280h47.43c6.63 0 12 5.37 12 12v45.54c0 6.62 5.37 12 12 12h26.7" stroke="#333" stroke-width="4" fill="none"/><path d="M762.05 282H760v-4h2.05z" fill="#333"/><path d="M876.4 349.54l-14.28 4.63v-9.27z" stroke="#333" stroke-width="4" fill="#333"/><path d="M762 420h47.43c6.63 0 12-5.37 12-12v-46.46c0-6.63 5.37-12 12-12h26.7" stroke="#333" stroke-width="4" fill="none"/><path d="M762.05 422H760v-4h2.05z" fill="#333"/><path d="M876.4 349.54l-14.28 4.63v-9.27z" stroke="#333" stroke-width="4" fill="#333"/><path d="M780 468.58c0-4.42 3.58-8 8-8h569.72c4.42 0 8 3.58 8 8v104c0 4.4-3.58 8-8 8H788c-4.42 0-8-3.6-8-8z" stroke="#000" stroke-opacity="0" stroke-width="4" fill="#4397ff"/><use xlink:href="#q" transform="matrix(1,0,0,1,785.561,466.13726621945347) translate(13.796735924515215 59.58193886379071)"/><path d="M674.28 648c0-4.42 3.58-8 8-8H1232c4.42 0 8 3.58 8 8v104c0 4.42-3.58 8-8 8H682.28c-4.42 0-8-3.58-8-8z" stroke="#000" stroke-opacity="0" stroke-width="2" fill="#3fb8b9"/><use xlink:href="#r" transform="matrix(1,0,0,1,679.8416816132525,645.561) translate(25.986845601913355 59.58193886379071)"/><path d="M1072.86 582.58v15.7c0 6.64-5.37 12-12 12H964.1c-3.84 0-6.96 3.13-6.96 6.98" stroke="#333" stroke-width="4" fill="none"/><path d="M1074.86 582.63h-4v-2.05h4z" fill="#333"/><path d="M957.14 633.53l-4.63-14.27h9.28z" stroke="#333" stroke-width="4" fill="#333"/><path d="M1072.86 411.54v26.3" stroke="#333" stroke-width="4" fill="none"/><path d="M1074.86 411.6h-4v-2.06h4z" fill="#333"/><path d="M1072.86 454.1l-4.64-14.26h9.27z" stroke="#333" stroke-width="4" fill="#333"/><path d="M1280 828c0-4.42 3.58-8 8-8h484c4.42 0 8 3.58 8 8v104c0 4.42-3.58 8-8 8h-484c-4.42 0-8-3.58-8-8z" stroke="#000" stroke-opacity="0" stroke-width="2" fill="#ff8839"/><use xlink:href="#s" transform="matrix(1,0,0,1,1285.561,825.561) translate(14.987619872507846 59.58193886379071)"/><path d="M947.14 942v35.26" stroke="#333" stroke-width="4" fill="none"/><path d="M949.14 942.05h-4V940h4z" fill="#333"/><path d="M947.14 993.53l-4.63-14.27h9.28z" stroke="#333" stroke-width="4" fill="#333"/><path d="M1222 1060h16c6.63 0 12-5.37 12-12V887.26c0-4 3.25-7.26 7.26-7.26" stroke="#333" stroke-width="4" fill="none"/><path d="M1222.05 1062H1220v-4h2.05z" fill="#333"/><path d="M1273.53 880l-14.27 4.64v-9.28z" stroke="#333" stroke-width="4" fill="#333"/><path d="M1260 1187.42c0-4.4 3.58-8 8-8h524c4.42 0 8 3.6 8 8v104c0 4.42-3.58 8-8 8h-524c-4.42 0-8-3.58-8-8z" stroke="#000" stroke-opacity="0" stroke-width="2" fill="#c92d39"/><use xlink:href="#t" transform="matrix(1,0,0,1,1265.561,1184.9847337805465) translate(12.835377276470378 61.80685971594768)"/><path d="M1530 942v214.7" stroke="#333" stroke-width="4" fill="none"/><path d="M1532 942.05h-4V940h4z" fill="#333"/><path d="M1530 1172.95l-4.64-14.26h9.28z" stroke="#333" stroke-width="4" fill="#333"/><path d="M1262.86 1368c0-4.42 3.58-8 8-8H1792c4.42 0 8 3.58 8 8v104c0 4.42-3.58 8-8 8h-521.14c-4.42 0-8-3.58-8-8z" stroke="#000" stroke-opacity="0" stroke-width="2" fill="#282c33"/><use xlink:href="#u" transform="matrix(1,0,0,1,1268.420659194259,1365.561) translate(84.61590765182763 59.58193886379071)"/><path d="M674.28 1368c0-4.42 3.58-8 8-8h521.14c4.42 0 8 3.58 8 8v104c0 4.42-3.58 8-8 8H682.28c-4.42 0-8-3.58-8-8z" stroke="#000" stroke-opacity="0" stroke-width="2" fill="#282c33"/><use xlink:href="#v" transform="matrix(1,0,0,1,679.8416816132524,1365.561) translate(91.39411521540146 59.58193886379071)"/><path d="M1530 1301.42V1329c0 .4.32.7.7.7.4 0 .73.33.73.73v6.83" stroke="#333" stroke-width="4" fill="none"/><path d="M1532 1301.48h-4v-2.06h4z" fill="#333"/><path d="M1531.43 1353.53l-4.64-14.27h9.27z" stroke="#333" stroke-width="4" fill="#333"/><path d="M1262.36 1420h-34.56" stroke="#333" fill="none"/><path d="M1262.86 1420.5h-.5v-1h.5z" fill="#333"/><path d="M1213.04 1420l14.26-4.64v9.28z" stroke="#333" fill="#333"/><path d="M320 350c0 16.57-13.43 30-30 30s-30-13.43-30-30 13.43-30 30-30 30 13.43 30 30z" stroke="#333" fill="#fff"/><path d="M322.5 350h15.75c6.63 0 12-5.37 12-12v-40.5c0-3.86 3.14-7 7-7" stroke="#333" stroke-width="4" fill="none"/><path d="M322.55 352h-2.2l.15-2-.07-2h2.12z" fill="#333"/><path d="M373.53 290.5l-14.27 4.64v-9.27z" stroke="#333" stroke-width="4" fill="#333"/><path d="M322.5 350h15.75c6.63 0 12 5.37 12 12v40.5c0 3.86 3.14 7 7 7" stroke="#333" stroke-width="4" fill="none"/><path d="M322.55 352h-2.2l.15-2-.07-2h2.12z" fill="#333"/><path d="M373.53 409.5l-14.27 4.63v-9.27z" stroke="#333" stroke-width="4" fill="#333"/><path d="M600 1420c0 16.57-13.43 30-30 30s-30-13.43-30-30 13.43-30 30-30 30 13.43 30 30z" stroke="#333" stroke-width="5" fill="#fff"/><path d="M672.28 1420h-49.04" stroke="#333" stroke-width="4" fill="none"/><path d="M674.28 1422h-2.05v-4h2.05z" fill="#333"/><path d="M606.97 1420l14.27-4.64v9.28z" stroke="#333" stroke-width="4" fill="#333"/><path d="M957.14 762v35.26" stroke="#333" stroke-width="4" fill="none"/><path d="M959.14 762.05h-4V760h4z" fill="#333"/><path d="M957.14 813.53l-4.63-14.27h9.28z" stroke="#333" stroke-width="4" fill="#333"/><path d="M1800 1420" stroke="#333" fill="none"/><path fill="#333"/><path d="M1798.38 1420l-14.26 4.64v-9.28z" stroke="#333" fill="#333"/><path d="M1260.86 1420h-58.12" stroke="#333" stroke-width="4" fill="none"/><path d="M1262.86 1422h-2.05v-4h2.06z" fill="#333"/><path d="M1186.47 1420l14.27-4.64v9.28z" stroke="#333" stroke-width="4" fill="#333"/><defs><path fill="#fff" d="M231 0h-52l-39-155L100 0H48L-1-190h46L77-45c9-52 24-97 36-145h53l37 145 32-145h46" id="w"/><path fill="#fff" d="M133-34C117-15 103 5 69 4 32 3 11-16 11-54c-1-60 55-63 116-61 1-26-3-47-28-47-18 1-26 9-28 27l-52-2c7-38 36-58 82-57s74 22 75 68l1 82c-1 14 12 18 25 15v27c-30 8-71 5-69-32zm-48 3c29 0 43-24 42-57-32 0-66-3-65 30 0 17 8 27 23 27" id="x"/><path fill="#fff" d="M25 0v-261h50V0H25" id="y"/><path fill="#fff" d="M185-48c-13 30-37 53-82 52C43 2 14-33 14-96s30-98 90-98c62 0 83 45 84 108H66c0 31 8 55 39 56 18 0 30-7 34-22zm-45-69c5-46-57-63-70-21-2 6-4 13-4 21h74" id="z"/><path fill="#fff" d="M115-3C79 11 28 4 28-45v-112H4v-33h27l15-45h31v45h36v33H77v99c-1 23 16 31 38 25v30" id="A"/><g id="a"><use transform="matrix(0.0767132787406948,0,0,0.0767132787406948,0,0)" xlink:href="#w"/><use transform="matrix(0.0767132787406948,0,0,0.0767132787406948,21.479718047394545,0)" xlink:href="#x"/><use transform="matrix(0.0767132787406948,0,0,0.0767132787406948,36.82237379553351,0)" xlink:href="#y"/><use transform="matrix(0.0767132787406948,0,0,0.0767132787406948,44.49370166960299,0)" xlink:href="#y"/><use transform="matrix(0.0767132787406948,0,0,0.0767132787406948,52.165029543672475,0)" xlink:href="#z"/><use transform="matrix(0.0767132787406948,0,0,0.0767132787406948,67.50768529181144,0)" xlink:href="#A"/></g><path fill="#fff" d="M25-224v-37h50v37H25zM25 0v-190h50V0H25" id="B"/><path fill="#fff" d="M135-194c87-1 58 113 63 194h-50c-7-57 23-157-34-157-59 0-34 97-39 157H25l-1-190h47c2 12-1 28 3 38 12-26 28-41 61-42" id="C"/><path fill="#fff" d="M135-150c-39-12-60 13-60 57V0H25l-1-190h47c2 13-1 29 3 40 6-28 27-53 61-41v41" id="D"/><path fill="#fff" d="M121-226c-27-7-43 5-38 36h38v33H83V0H34v-157H6v-33h28c-9-59 32-81 87-68v32" id="E"/><path fill="#fff" d="M190-63c-7 42-38 67-86 67-59 0-84-38-90-98-12-110 154-137 174-36l-49 2c-2-19-15-32-35-32-30 0-35 28-38 64-6 74 65 87 74 30" id="F"/><g id="b"><use transform="matrix(0.0767132787406948,0,0,0.0767132787406948,0,0)" xlink:href="#B"/><use transform="matrix(0.0767132787406948,0,0,0.0767132787406948,7.671327874069481,0)" xlink:href="#C"/><use transform="matrix(0.0767132787406948,0,0,0.0767132787406948,24.471535918281642,0)" xlink:href="#A"/><use transform="matrix(0.0767132787406948,0,0,0.0767132787406948,33.600416088424325,0)" xlink:href="#z"/><use transform="matrix(0.0767132787406948,0,0,0.0767132787406948,48.943071836563284,0)" xlink:href="#D"/><use transform="matrix(0.0767132787406948,0,0,0.0767132787406948,59.68293086026055,0)" xlink:href="#E"/><use transform="matrix(0.0767132787406948,0,0,0.0767132787406948,68.81181103040323,0)" xlink:href="#x"/><use transform="matrix(0.0767132787406948,0,0,0.0767132787406948,84.1544667785422,0)" xlink:href="#F"/><use transform="matrix(0.0767132787406948,0,0,0.0767132787406948,99.49712252668117,0)" xlink:href="#z"/></g><path fill="#fff" d="M137-138c1-29-70-34-71-4 15 46 118 7 119 86 1 83-164 76-172 9l43-7c4 19 20 25 44 25 33 8 57-30 24-41C81-84 22-81 20-136c-2-80 154-74 161-7" id="G"/><path fill="#fff" d="M110-194c64 0 96 36 96 99 0 64-35 99-97 99-61 0-95-36-95-99 0-62 34-99 96-99zm-1 164c35 0 45-28 45-65 0-40-10-65-43-65-34 0-45 26-45 65 0 36 10 65 43 65" id="H"/><g id="c"><use transform="matrix(0.0767132787406948,0,0,0.0767132787406948,0,0)" xlink:href="#A"/><use transform="matrix(0.0767132787406948,0,0,0.0767132787406948,9.128880170142683,0)" xlink:href="#D"/><use transform="matrix(0.0767132787406948,0,0,0.0767132787406948,19.868739193839954,0)" xlink:href="#x"/><use transform="matrix(0.0767132787406948,0,0,0.0767132787406948,35.21139494197892,0)" xlink:href="#C"/><use transform="matrix(0.0767132787406948,0,0,0.0767132787406948,52.01160298619108,0)" xlink:href="#G"/><use transform="matrix(0.0767132787406948,0,0,0.0767132787406948,67.35425873433005,0)" xlink:href="#x"/><use transform="matrix(0.0767132787406948,0,0,0.0767132787406948,82.69691448246903,0)" xlink:href="#F"/><use transform="matrix(0.0767132787406948,0,0,0.0767132787406948,98.03957023060798,0)" xlink:href="#A"/><use transform="matrix(0.0767132787406948,0,0,0.0767132787406948,107.16845040075066,0)" xlink:href="#B"/><use transform="matrix(0.0767132787406948,0,0,0.0767132787406948,114.83977827482012,0)" xlink:href="#H"/><use transform="matrix(0.0767132787406948,0,0,0.0767132787406948,131.6399863190323,0)" xlink:href="#C"/></g><path fill="#fff" d="M128 0H69L1-190h53L99-40l48-150h52" id="I"/><path fill="#fff" d="M88-194c31-1 46 15 58 34l-1-101h50l1 261h-48c-2-10 0-23-3-31C134-8 116 4 84 4 32 4 16-41 15-95c0-56 19-97 73-99zm17 164c33 0 40-30 41-66 1-37-9-64-41-64s-38 30-39 65c0 43 13 65 39 65" id="J"/><g id="d"><use transform="matrix(0.0767132787406948,0,0,0.0767132787406948,0,0)" xlink:href="#I"/><use transform="matrix(0.0767132787406948,0,0,0.0767132787406948,15.342655748138961,0)" xlink:href="#x"/><use transform="matrix(0.0767132787406948,0,0,0.0767132787406948,30.685311496277922,0)" xlink:href="#y"/><use transform="matrix(0.0767132787406948,0,0,0.0767132787406948,38.3566393703474,0)" xlink:href="#B"/><use transform="matrix(0.0767132787406948,0,0,0.0767132787406948,46.027967244416885,0)" xlink:href="#J"/><use transform="matrix(0.0767132787406948,0,0,0.0767132787406948,62.82817528862905,0)" xlink:href="#x"/><use transform="matrix(0.0767132787406948,0,0,0.0767132787406948,78.170831036768,0)" xlink:href="#A"/><use transform="matrix(0.0767132787406948,0,0,0.0767132787406948,87.29971120691069,0)" xlink:href="#B"/><use transform="matrix(0.0767132787406948,0,0,0.0767132787406948,94.97103908098018,0)" xlink:href="#H"/><use transform="matrix(0.0767132787406948,0,0,0.0767132787406948,111.77124712519233,0)" xlink:href="#C"/></g><g id="e"><use transform="matrix(0.0767132787406948,0,0,0.0767132787406948,0,0)" xlink:href="#C"/><use transform="matrix(0.0767132787406948,0,0,0.0767132787406948,16.800208044212162,0)" xlink:href="#z"/><use transform="matrix(0.0767132787406948,0,0,0.0767132787406948,32.14286379235112,0)" xlink:href="#A"/></g><path fill="#fff" d="M135-194c53 0 70 44 70 98 0 56-19 98-73 100-31 1-45-17-59-34 3 33 2 69 2 105H25l-1-265h48c2 10 0 23 3 31 11-24 29-35 60-35zM114-30c33 0 39-31 40-66 0-38-9-64-40-64-56 0-55 130 0 130" id="K"/><path fill="#fff" d="M195-6C206 82 75 100 31 46c-4-6-6-13-8-21l49-6c3 16 16 24 34 25 40 0 42-37 40-79-11 22-30 35-61 35-53 0-70-43-70-97 0-56 18-96 73-97 30 0 46 14 59 34l2-30h47zm-90-29c32 0 41-27 41-63 0-35-9-62-40-62-32 0-39 29-40 63 0 36 9 62 39 62" id="L"/><g id="f"><use transform="matrix(0.0767132787406948,0,0,0.0767132787406948,0,0)" xlink:href="#K"/><use transform="matrix(0.0767132787406948,0,0,0.0767132787406948,16.800208044212162,0)" xlink:href="#D"/><use transform="matrix(0.0767132787406948,0,0,0.0767132787406948,27.54006706790943,0)" xlink:href="#H"/><use transform="matrix(0.0767132787406948,0,0,0.0767132787406948,44.340275112121596,0)" xlink:href="#F"/><use transform="matrix(0.0767132787406948,0,0,0.0767132787406948,59.68293086026055,0)" xlink:href="#z"/><use transform="matrix(0.0767132787406948,0,0,0.0767132787406948,75.02558660839952,0)" xlink:href="#G"/><use transform="matrix(0.0767132787406948,0,0,0.0767132787406948,90.36824235653849,0)" xlink:href="#G"/><use transform="matrix(0.0767132787406948,0,0,0.0767132787406948,105.71089810467745,0)" xlink:href="#B"/><use transform="matrix(0.0767132787406948,0,0,0.0767132787406948,113.38222597874693,0)" xlink:href="#C"/><use transform="matrix(0.0767132787406948,0,0,0.0767132787406948,130.1824340229591,0)" xlink:href="#L"/></g><g id="g"><use transform="matrix(0.0767132787406948,0,0,0.0767132787406948,0,0)" xlink:href="#C"/><use transform="matrix(0.0767132787406948,0,0,0.0767132787406948,16.800208044212162,0)" xlink:href="#z"/><use transform="matrix(0.0767132787406948,0,0,0.0767132787406948,32.14286379235112,0)" xlink:href="#A"/></g><path fill="#fff" d="M24 0v-54h51V0H24" id="M"/><path fill="#fff" d="M35-132v-50h50v50H35zM35 0v-49h50V0H35" id="N"/><path fill="#fff" d="M199 0l-22-63H83L61 0H9l90-248h61L250 0h-51zm-33-102l-36-108c-10 38-24 72-36 108h72" id="O"/><path fill="#fff" d="M136-208V0H84v-208H4v-40h212v40h-80" id="P"/><path fill="#fff" d="M230 0l2-204L168 0h-37L68-204 70 0H24v-248h70l56 185 57-185h69V0h-46" id="Q"/><path fill="#fff" d="M220-157c-53 9-28 100-34 157h-49v-107c1-27-5-49-29-50C55-147 81-57 75 0H25l-1-190h47c2 12-1 28 3 38 10-53 101-56 108 0 13-22 24-43 59-42 82 1 51 116 57 194h-49v-107c-1-25-5-48-29-50" id="R"/><path fill="#fff" d="M123 10C108 53 80 86 19 72V37c35 8 53-11 59-39L3-190h52l48 148c12-52 28-100 44-148h51" id="S"/><path fill="#fff" d="M24-248c93 1 206-16 204 79-1 75-69 88-152 82V0H24v-248zm52 121c47 0 100 7 100-41 0-47-54-39-100-39v80" id="T"/><path fill="#fff" d="M67-93c0 74 22 123 53 168H70C40 30 18-18 18-93s22-123 52-168h50c-32 44-53 94-53 168" id="U"/><path fill="#fff" d="M102-93c0 74-22 123-52 168H0C30 29 54-18 53-93c0-74-22-123-53-168h50c30 45 52 94 52 168" id="V"/><g id="h"><use transform="matrix(0.07573416272149551,0,0,0.07573416272149551,0,0)" xlink:href="#I"/><use transform="matrix(0.07573416272149551,0,0,0.07573416272149551,15.146832544299102,0)" xlink:href="#x"/><use transform="matrix(0.07573416272149551,0,0,0.07573416272149551,30.293665088598203,0)" xlink:href="#y"/><use transform="matrix(0.07573416272149551,0,0,0.07573416272149551,37.867081360747754,0)" xlink:href="#B"/><use transform="matrix(0.07573416272149551,0,0,0.07573416272149551,45.440497632897305,0)" xlink:href="#J"/><use transform="matrix(0.07573416272149551,0,0,0.07573416272149551,62.02627926890482,0)" xlink:href="#x"/><use transform="matrix(0.07573416272149551,0,0,0.07573416272149551,77.17311181320392,0)" xlink:href="#A"/><use transform="matrix(0.07573416272149551,0,0,0.07573416272149551,86.18547717706188,0)" xlink:href="#B"/><use transform="matrix(0.07573416272149551,0,0,0.07573416272149551,93.75889344921143,0)" xlink:href="#H"/><use transform="matrix(0.07573416272149551,0,0,0.07573416272149551,110.34467508521894,0)" xlink:href="#C"/><use transform="matrix(0.07573416272149551,0,0,0.07573416272149551,126.93045672122646,0)" xlink:href="#M"/><use transform="matrix(0.07573416272149551,0,0,0.07573416272149551,134.503872993376,0)" xlink:href="#F"/><use transform="matrix(0.07573416272149551,0,0,0.07573416272149551,149.6507055376751,0)" xlink:href="#K"/><use transform="matrix(0.07573416272149551,0,0,0.07573416272149551,166.2364871736826,0)" xlink:href="#K"/><use transform="matrix(0.07573416272149551,0,0,0.07573416272149551,182.82226880969012,0)" xlink:href="#N"/><use transform="matrix(0.07573416272149551,0,0,0.07573416272149551,191.83463417354807,0)" xlink:href="#N"/><use transform="matrix(0.07573416272149551,0,0,0.07573416272149551,200.84699953740602,0)" xlink:href="#O"/><use transform="matrix(0.07573416272149551,0,0,0.07573416272149551,220.46214768227335,0)" xlink:href="#F"/><use transform="matrix(0.07573416272149551,0,0,0.07573416272149551,235.60898022657244,0)" xlink:href="#F"/><use transform="matrix(0.07573416272149551,0,0,0.07573416272149551,250.75581277087156,0)" xlink:href="#z"/><use transform="matrix(0.07573416272149551,0,0,0.07573416272149551,265.9026453151707,0)" xlink:href="#K"/><use transform="matrix(0.07573416272149551,0,0,0.07573416272149551,282.4884269511782,0)" xlink:href="#A"/><use transform="matrix(0.07573416272149551,0,0,0.07573416272149551,291.50079231503616,0)" xlink:href="#P"/><use transform="matrix(0.07573416272149551,0,0,0.07573416272149551,306.0417515575633,0)" xlink:href="#H"/><use transform="matrix(0.07573416272149551,0,0,0.07573416272149551,322.62753319357086,0)" xlink:href="#Q"/><use transform="matrix(0.07573416272149551,0,0,0.07573416272149551,345.27204784729804,0)" xlink:href="#z"/><use transform="matrix(0.07573416272149551,0,0,0.07573416272149551,360.41888039159716,0)" xlink:href="#R"/><use transform="matrix(0.07573416272149551,0,0,0.07573416272149551,384.65381246247574,0)" xlink:href="#H"/><use transform="matrix(0.07573416272149551,0,0,0.07573416272149551,401.2395940984833,0)" xlink:href="#D"/><use transform="matrix(0.07573416272149551,0,0,0.07573416272149551,411.84237687949263,0)" xlink:href="#S"/><use transform="matrix(0.07573416272149551,0,0,0.07573416272149551,426.98920942379175,0)" xlink:href="#T"/><use transform="matrix(0.07573416272149551,0,0,0.07573416272149551,445.1654084769507,0)" xlink:href="#H"/><use transform="matrix(0.07573416272149551,0,0,0.07573416272149551,461.7511901129583,0)" xlink:href="#H"/><use transform="matrix(0.07573416272149551,0,0,0.07573416272149551,478.33697174896577,0)" xlink:href="#y"/><use transform="matrix(0.07573416272149551,0,0,0.07573416272149551,485.91038802111535,0)" xlink:href="#U"/><use transform="matrix(0.07573416272149551,0,0,0.07573416272149551,494.92275338497325,0)" xlink:href="#V"/></g><path fill="#fff" d="M182-130c37 4 62 22 62 59C244 23 116-4 24 0v-248c84 5 203-23 205 63 0 31-19 50-47 55zM76-148c40-3 101 13 101-30 0-44-60-28-101-31v61zm0 110c48-3 116 14 116-37 0-48-69-32-116-35v72" id="W"/><g id="i"><use transform="matrix(0.07573416272149551,0,0,0.07573416272149551,0,0)" xlink:href="#A"/><use transform="matrix(0.07573416272149551,0,0,0.07573416272149551,9.012365363857965,0)" xlink:href="#D"/><use transform="matrix(0.07573416272149551,0,0,0.07573416272149551,19.615148144867337,0)" xlink:href="#x"/><use transform="matrix(0.07573416272149551,0,0,0.07573416272149551,34.761980689166435,0)" xlink:href="#C"/><use transform="matrix(0.07573416272149551,0,0,0.07573416272149551,51.34776232517395,0)" xlink:href="#G"/><use transform="matrix(0.07573416272149551,0,0,0.07573416272149551,66.49459486947305,0)" xlink:href="#x"/><use transform="matrix(0.07573416272149551,0,0,0.07573416272149551,81.64142741377215,0)" xlink:href="#F"/><use transform="matrix(0.07573416272149551,0,0,0.07573416272149551,96.78825995807125,0)" xlink:href="#A"/><use transform="matrix(0.07573416272149551,0,0,0.07573416272149551,105.8006253219292,0)" xlink:href="#B"/><use transform="matrix(0.07573416272149551,0,0,0.07573416272149551,113.37404159407876,0)" xlink:href="#H"/><use transform="matrix(0.07573416272149551,0,0,0.07573416272149551,129.95982323008627,0)" xlink:href="#C"/><use transform="matrix(0.07573416272149551,0,0,0.07573416272149551,146.54560486609378,0)" xlink:href="#M"/><use transform="matrix(0.07573416272149551,0,0,0.07573416272149551,154.11902113824334,0)" xlink:href="#F"/><use transform="matrix(0.07573416272149551,0,0,0.07573416272149551,169.26585368254246,0)" xlink:href="#K"/><use transform="matrix(0.07573416272149551,0,0,0.07573416272149551,185.85163531855,0)" xlink:href="#K"/><use transform="matrix(0.07573416272149551,0,0,0.07573416272149551,202.43741695455748,0)" xlink:href="#N"/><use transform="matrix(0.07573416272149551,0,0,0.07573416272149551,211.44978231841543,0)" xlink:href="#N"/><use transform="matrix(0.07573416272149551,0,0,0.07573416272149551,220.46214768227338,0)" xlink:href="#W"/><use transform="matrix(0.07573416272149551,0,0,0.07573416272149551,240.07729582714074,0)" xlink:href="#D"/><use transform="matrix(0.07573416272149551,0,0,0.07573416272149551,250.6800786081501,0)" xlink:href="#H"/><use transform="matrix(0.07573416272149551,0,0,0.07573416272149551,267.26586024415764,0)" xlink:href="#x"/><use transform="matrix(0.07573416272149551,0,0,0.07573416272149551,282.41269278845675,0)" xlink:href="#J"/><use transform="matrix(0.07573416272149551,0,0,0.07573416272149551,298.9984744244643,0)" xlink:href="#F"/><use transform="matrix(0.07573416272149551,0,0,0.07573416272149551,314.14530696876335,0)" xlink:href="#x"/><use transform="matrix(0.07573416272149551,0,0,0.07573416272149551,329.2921395130625,0)" xlink:href="#G"/><use transform="matrix(0.07573416272149551,0,0,0.07573416272149551,344.43897205736164,0)" xlink:href="#A"/><use transform="matrix(0.07573416272149551,0,0,0.07573416272149551,353.4513374212196,0)" xlink:href="#P"/><use transform="matrix(0.07573416272149551,0,0,0.07573416272149551,368.52243580279725,0)" xlink:href="#D"/><use transform="matrix(0.07573416272149551,0,0,0.07573416272149551,379.1252185838066,0)" xlink:href="#x"/><use transform="matrix(0.07573416272149551,0,0,0.07573416272149551,394.2720511281057,0)" xlink:href="#C"/><use transform="matrix(0.07573416272149551,0,0,0.07573416272149551,410.85783276411325,0)" xlink:href="#G"/><use transform="matrix(0.07573416272149551,0,0,0.07573416272149551,426.00466530841237,0)" xlink:href="#x"/><use transform="matrix(0.07573416272149551,0,0,0.07573416272149551,441.1514978527115,0)" xlink:href="#F"/><use transform="matrix(0.07573416272149551,0,0,0.07573416272149551,456.2983303970106,0)" xlink:href="#A"/><use transform="matrix(0.07573416272149551,0,0,0.07573416272149551,465.31069576086855,0)" xlink:href="#B"/><use transform="matrix(0.07573416272149551,0,0,0.07573416272149551,472.8841120330181,0)" xlink:href="#H"/><use transform="matrix(0.07573416272149551,0,0,0.07573416272149551,489.4698936690256,0)" xlink:href="#C"/><use transform="matrix(0.07573416272149551,0,0,0.07573416272149551,506.05567530503316,0)" xlink:href="#U"/><use transform="matrix(0.07573416272149551,0,0,0.07573416272149551,515.0680406688912,0)" xlink:href="#V"/></g><path d="M24 0v-248h52v208h133V0H24" id="X"/><path d="M25-224v-37h50v37H25zM25 0v-190h50V0H25" id="Y"/><path d="M121-226c-27-7-43 5-38 36h38v33H83V0H34v-157H6v-33h28c-9-59 32-81 87-68v32" id="Z"/><path d="M185-48c-13 30-37 53-82 52C43 2 14-33 14-96s30-98 90-98c62 0 83 45 84 108H66c0 31 8 55 39 56 18 0 30-7 34-22zm-45-69c5-46-57-63-70-21-2 6-4 13-4 21h74" id="aa"/><path d="M190-63c-7 42-38 67-86 67-59 0-84-38-90-98-12-110 154-137 174-36l-49 2c-2-19-15-32-35-32-30 0-35 28-38 64-6 74 65 87 74 30" id="ab"/><path d="M123 10C108 53 80 86 19 72V37c35 8 53-11 59-39L3-190h52l48 148c12-52 28-100 44-148h51" id="ac"/><path d="M25 0v-261h50V0H25" id="ad"/><g id="j"><use transform="matrix(0.10370370370370367,0,0,0.10370370370370367,0,0)" xlink:href="#X"/><use transform="matrix(0.10370370370370367,0,0,0.10370370370370367,22.711111111111105,0)" xlink:href="#Y"/><use transform="matrix(0.10370370370370367,0,0,0.10370370370370367,33.081481481481475,0)" xlink:href="#Z"/><use transform="matrix(0.10370370370370367,0,0,0.10370370370370367,45.42222222222221,0)" xlink:href="#aa"/><use transform="matrix(0.10370370370370367,0,0,0.10370370370370367,66.16296296296295,0)" xlink:href="#ab"/><use transform="matrix(0.10370370370370367,0,0,0.10370370370370367,86.90370370370368,0)" xlink:href="#ac"/><use transform="matrix(0.10370370370370367,0,0,0.10370370370370367,107.64444444444442,0)" xlink:href="#ab"/><use transform="matrix(0.10370370370370367,0,0,0.10370370370370367,128.38518518518515,0)" xlink:href="#ad"/><use transform="matrix(0.10370370370370367,0,0,0.10370370370370367,138.75555555555553,0)" xlink:href="#aa"/></g><path d="M110-194c64 0 96 36 96 99 0 64-35 99-97 99-61 0-95-36-95-99 0-62 34-99 96-99zm-1 164c35 0 45-28 45-65 0-40-10-65-43-65-34 0-45 26-45 65 0 36 10 65 43 65" id="ae"/><g id="k"><use transform="matrix(0.10370370370370367,0,0,0.10370370370370367,0,0)" xlink:href="#ae"/><use transform="matrix(0.10370370370370367,0,0,0.10370370370370367,22.711111111111105,0)" xlink:href="#Z"/></g><path d="M133-34C117-15 103 5 69 4 32 3 11-16 11-54c-1-60 55-63 116-61 1-26-3-47-28-47-18 1-26 9-28 27l-52-2c7-38 36-58 82-57s74 22 75 68l1 82c-1 14 12 18 25 15v27c-30 8-71 5-69-32zm-48 3c29 0 43-24 42-57-32 0-66-3-65 30 0 17 8 27 23 27" id="af"/><use transform="matrix(0.10370370370370367,0,0,0.10370370370370367,0,0)" xlink:href="#af" id="l"/><path d="M136-208V0H84v-208H4v-40h212v40h-80" id="ag"/><path d="M135-150c-39-12-60 13-60 57V0H25l-1-190h47c2 13-1 29 3 40 6-28 27-53 61-41v41" id="ah"/><path d="M135-194c87-1 58 113 63 194h-50c-7-57 23-157-34-157-59 0-34 97-39 157H25l-1-190h47c2 12-1 28 3 38 12-26 28-41 61-42" id="ai"/><path d="M137-138c1-29-70-34-71-4 15 46 118 7 119 86 1 83-164 76-172 9l43-7c4 19 20 25 44 25 33 8 57-30 24-41C81-84 22-81 20-136c-2-80 154-74 161-7" id="aj"/><path d="M115-3C79 11 28 4 28-45v-112H4v-33h27l15-45h31v45h36v33H77v99c-1 23 16 31 38 25v30" id="ak"/><g id="m"><use transform="matrix(0.10370370370370367,0,0,0.10370370370370367,0,0)" xlink:href="#ag"/><use transform="matrix(0.10370370370370367,0,0,0.10370370370370367,20.637037037037032,0)" xlink:href="#ah"/><use transform="matrix(0.10370370370370367,0,0,0.10370370370370367,35.155555555555544,0)" xlink:href="#af"/><use transform="matrix(0.10370370370370367,0,0,0.10370370370370367,55.89629629629628,0)" xlink:href="#ai"/><use transform="matrix(0.10370370370370367,0,0,0.10370370370370367,78.60740740740738,0)" xlink:href="#aj"/><use transform="matrix(0.10370370370370367,0,0,0.10370370370370367,99.34814814814811,0)" xlink:href="#af"/><use transform="matrix(0.10370370370370367,0,0,0.10370370370370367,120.08888888888886,0)" xlink:href="#ab"/><use transform="matrix(0.10370370370370367,0,0,0.10370370370370367,140.82962962962958,0)" xlink:href="#ak"/><use transform="matrix(0.10370370370370367,0,0,0.10370370370370367,153.1703703703703,0)" xlink:href="#Y"/><use transform="matrix(0.10370370370370367,0,0,0.10370370370370367,163.54074074074066,0)" xlink:href="#ae"/><use transform="matrix(0.10370370370370367,0,0,0.10370370370370367,186.25185185185177,0)" xlink:href="#ai"/></g><path fill="#fff" d="M275 0h-61l-44-196L126 0H64L0-248h53L97-49l45-199h58l43 199 44-199h52" id="al"/><path fill="#fff" d="M67-125c0 53 21 87 73 88 37 1 54-22 65-47l45 17C233-25 199 4 140 4 58 4 20-42 15-125 8-235 124-281 211-232c18 10 29 29 36 50l-46 12c-8-25-30-41-62-41-52 0-71 34-72 86" id="am"/><g id="n"><use transform="matrix(0.07573416272149551,0,0,0.07573416272149551,0,0)" xlink:href="#al"/><use transform="matrix(0.07573416272149551,0,0,0.07573416272149551,24.68933704720753,0)" xlink:href="#x"/><use transform="matrix(0.07573416272149551,0,0,0.07573416272149551,39.83616959150663,0)" xlink:href="#y"/><use transform="matrix(0.07573416272149551,0,0,0.07573416272149551,47.40958586365618,0)" xlink:href="#y"/><use transform="matrix(0.07573416272149551,0,0,0.07573416272149551,54.983002135805734,0)" xlink:href="#z"/><use transform="matrix(0.07573416272149551,0,0,0.07573416272149551,70.12983468010484,0)" xlink:href="#A"/><use transform="matrix(0.07573416272149551,0,0,0.07573416272149551,79.1422000439628,0)" xlink:href="#Q"/><use transform="matrix(0.07573416272149551,0,0,0.07573416272149551,101.78671469768996,0)" xlink:href="#H"/><use transform="matrix(0.07573416272149551,0,0,0.07573416272149551,118.37249633369748,0)" xlink:href="#J"/><use transform="matrix(0.07573416272149551,0,0,0.07573416272149551,134.958277969705,0)" xlink:href="#z"/><use transform="matrix(0.07573416272149551,0,0,0.07573416272149551,150.10511051400408,0)" xlink:href="#y"/><use transform="matrix(0.07573416272149551,0,0,0.07573416272149551,157.67852678615364,0)" xlink:href="#N"/><use transform="matrix(0.07573416272149551,0,0,0.07573416272149551,166.6908921500116,0)" xlink:href="#N"/><use transform="matrix(0.07573416272149551,0,0,0.07573416272149551,175.70325751386954,0)" xlink:href="#G"/><use transform="matrix(0.07573416272149551,0,0,0.07573416272149551,190.8500900581686,0)" xlink:href="#z"/><use transform="matrix(0.07573416272149551,0,0,0.07573416272149551,205.99692260246775,0)" xlink:href="#C"/><use transform="matrix(0.07573416272149551,0,0,0.07573416272149551,222.58270423847526,0)" xlink:href="#J"/><use transform="matrix(0.07573416272149551,0,0,0.07573416272149551,239.1684858744828,0)" xlink:href="#am"/><use transform="matrix(0.07573416272149551,0,0,0.07573416272149551,258.78363401935013,0)" xlink:href="#H"/><use transform="matrix(0.07573416272149551,0,0,0.07573416272149551,275.36941565535767,0)" xlink:href="#B"/><use transform="matrix(0.07573416272149551,0,0,0.07573416272149551,282.9428319275072,0)" xlink:href="#C"/><use transform="matrix(0.07573416272149551,0,0,0.07573416272149551,299.52861356351474,0)" xlink:href="#G"/><use transform="matrix(0.07573416272149551,0,0,0.07573416272149551,314.67544610781385,0)" xlink:href="#U"/><use transform="matrix(0.07573416272149551,0,0,0.07573416272149551,323.6878114716718,0)" xlink:href="#V"/></g><g id="o"><use transform="matrix(0.07573416272149551,0,0,0.07573416272149551,0,0)" xlink:href="#D"/><use transform="matrix(0.07573416272149551,0,0,0.07573416272149551,10.602782781009372,0)" xlink:href="#K"/><use transform="matrix(0.07573416272149551,0,0,0.07573416272149551,27.18856441701689,0)" xlink:href="#F"/><use transform="matrix(0.07573416272149551,0,0,0.07573416272149551,42.33539696131599,0)" xlink:href="#w"/><use transform="matrix(0.07573416272149551,0,0,0.07573416272149551,63.54096252333474,0)" xlink:href="#x"/><use transform="matrix(0.07573416272149551,0,0,0.07573416272149551,78.68779506763383,0)" xlink:href="#y"/><use transform="matrix(0.07573416272149551,0,0,0.07573416272149551,86.26121133978339,0)" xlink:href="#y"/><use transform="matrix(0.07573416272149551,0,0,0.07573416272149551,93.83462761193293,0)" xlink:href="#z"/><use transform="matrix(0.07573416272149551,0,0,0.07573416272149551,108.98146015623203,0)" xlink:href="#A"/><use transform="matrix(0.07573416272149551,0,0,0.07573416272149551,117.99382552009003,0)" xlink:href="#M"/><use transform="matrix(0.07573416272149551,0,0,0.07573416272149551,125.56724179223957,0)" xlink:href="#F"/><use transform="matrix(0.07573416272149551,0,0,0.07573416272149551,140.71407433653866,0)" xlink:href="#K"/><use transform="matrix(0.07573416272149551,0,0,0.07573416272149551,157.29985597254617,0)" xlink:href="#K"/><use transform="matrix(0.07573416272149551,0,0,0.07573416272149551,173.88563760855368,0)" xlink:href="#N"/><use transform="matrix(0.07573416272149551,0,0,0.07573416272149551,182.89800297241163,0)" xlink:href="#N"/><use transform="matrix(0.07573416272149551,0,0,0.07573416272149551,191.91036833626958,0)" xlink:href="#G"/><use transform="matrix(0.07573416272149551,0,0,0.07573416272149551,207.0572008805687,0)" xlink:href="#z"/><use transform="matrix(0.07573416272149551,0,0,0.07573416272149551,222.20403342486782,0)" xlink:href="#C"/><use transform="matrix(0.07573416272149551,0,0,0.07573416272149551,238.78981506087536,0)" xlink:href="#J"/><use transform="matrix(0.07573416272149551,0,0,0.07573416272149551,255.37559669688284,0)" xlink:href="#U"/><use transform="matrix(0.07573416272149551,0,0,0.07573416272149551,264.3879620607408,0)" xlink:href="#V"/></g><g id="p"><use transform="matrix(0.07573416272149551,0,0,0.07573416272149551,0,0)" xlink:href="#am"/><use transform="matrix(0.07573416272149551,0,0,0.07573416272149551,19.615148144867337,0)" xlink:href="#al"/><use transform="matrix(0.07573416272149551,0,0,0.07573416272149551,44.30448519207487,0)" xlink:href="#x"/><use transform="matrix(0.07573416272149551,0,0,0.07573416272149551,59.45131773637397,0)" xlink:href="#y"/><use transform="matrix(0.07573416272149551,0,0,0.07573416272149551,67.02473400852352,0)" xlink:href="#y"/><use transform="matrix(0.07573416272149551,0,0,0.07573416272149551,74.59815028067308,0)" xlink:href="#z"/><use transform="matrix(0.07573416272149551,0,0,0.07573416272149551,89.74498282497218,0)" xlink:href="#A"/><use transform="matrix(0.07573416272149551,0,0,0.07573416272149551,98.75734818883015,0)" xlink:href="#N"/><use transform="matrix(0.07573416272149551,0,0,0.07573416272149551,107.76971355268812,0)" xlink:href="#N"/><use transform="matrix(0.07573416272149551,0,0,0.07573416272149551,116.78207891654607,0)" xlink:href="#O"/><use transform="matrix(0.07573416272149551,0,0,0.07573416272149551,136.39722706141342,0)" xlink:href="#J"/><use transform="matrix(0.07573416272149551,0,0,0.07573416272149551,152.98300869742093,0)" xlink:href="#J"/><use transform="matrix(0.07573416272149551,0,0,0.07573416272149551,169.56879033342844,0)" xlink:href="#P"/><use transform="matrix(0.07573416272149551,0,0,0.07573416272149551,184.10974957595556,0)" xlink:href="#H"/><use transform="matrix(0.07573416272149551,0,0,0.07573416272149551,200.69553121196307,0)" xlink:href="#al"/><use transform="matrix(0.07573416272149551,0,0,0.07573416272149551,225.38486825917062,0)" xlink:href="#x"/><use transform="matrix(0.07573416272149551,0,0,0.07573416272149551,240.53170080346973,0)" xlink:href="#y"/><use transform="matrix(0.07573416272149551,0,0,0.07573416272149551,248.1051170756193,0)" xlink:href="#y"/><use transform="matrix(0.07573416272149551,0,0,0.07573416272149551,255.67853334776885,0)" xlink:href="#z"/><use transform="matrix(0.07573416272149551,0,0,0.07573416272149551,270.82536589206796,0)" xlink:href="#A"/><use transform="matrix(0.07573416272149551,0,0,0.07573416272149551,279.8377312559259,0)" xlink:href="#U"/><use transform="matrix(0.07573416272149551,0,0,0.07573416272149551,288.85009661978387,0)" xlink:href="#V"/></g><path fill="#fff" d="M144 0l-44-69L55 0H2l70-98-66-92h53l41 62 40-62h54l-67 91 71 99h-54" id="an"/><path fill="#fff" d="M169-182c-1-43-94-46-97-3 18 66 151 10 154 114 3 95-165 93-204 36-6-8-10-19-12-30l50-8c3 46 112 56 116 5-17-69-150-10-154-114-4-87 153-88 188-35 5 8 8 18 10 28" id="ao"/><path fill="#fff" d="M85 4C-2 5 27-109 22-190h50c7 57-23 150 33 157 60-5 35-97 40-157h50l1 190h-47c-2-12 1-28-3-38-12 25-28 42-61 42" id="ap"/><path fill="#fff" d="M135-194c52 0 70 43 70 98 0 56-19 99-73 100-30 1-46-15-58-35L72 0H24l1-261h50v104c11-23 29-37 60-37zM114-30c31 0 40-27 40-66 0-37-7-63-39-63s-41 28-41 65c0 36 8 64 40 64" id="aq"/><path fill="#fff" d="M240-174c0 40-23 61-54 70L253 0h-59l-57-94H76V0H24v-248c93 4 217-23 216 74zM76-134c48-2 112 12 112-38 0-48-66-32-112-35v73" id="ar"/><g id="q"><use transform="matrix(0.07573416272149551,0,0,0.07573416272149551,0,0)" xlink:href="#am"/><use transform="matrix(0.07573416272149551,0,0,0.07573416272149551,19.615148144867337,0)" xlink:href="#al"/><use transform="matrix(0.07573416272149551,0,0,0.07573416272149551,44.30448519207487,0)" xlink:href="#x"/><use transform="matrix(0.07573416272149551,0,0,0.07573416272149551,59.45131773637397,0)" xlink:href="#y"/><use transform="matrix(0.07573416272149551,0,0,0.07573416272149551,67.02473400852352,0)" xlink:href="#y"/><use transform="matrix(0.07573416272149551,0,0,0.07573416272149551,74.59815028067308,0)" xlink:href="#z"/><use transform="matrix(0.07573416272149551,0,0,0.07573416272149551,89.74498282497218,0)" xlink:href="#A"/><use transform="matrix(0.07573416272149551,0,0,0.07573416272149551,98.75734818883015,0)" xlink:href="#P"/><use transform="matrix(0.07573416272149551,0,0,0.07573416272149551,115.34312982483766,0)" xlink:href="#an"/><use transform="matrix(0.07573416272149551,0,0,0.07573416272149551,130.48996236913678,0)" xlink:href="#N"/><use transform="matrix(0.07573416272149551,0,0,0.07573416272149551,139.50232773299473,0)" xlink:href="#N"/><use transform="matrix(0.07573416272149551,0,0,0.07573416272149551,148.51469309685268,0)" xlink:href="#ao"/><use transform="matrix(0.07573416272149551,0,0,0.07573416272149551,166.6908921500116,0)" xlink:href="#ap"/><use transform="matrix(0.07573416272149551,0,0,0.07573416272149551,183.2766737860191,0)" xlink:href="#aq"/><use transform="matrix(0.07573416272149551,0,0,0.07573416272149551,199.8624554220266,0)" xlink:href="#R"/><use transform="matrix(0.07573416272149551,0,0,0.07573416272149551,224.09738749290517,0)" xlink:href="#B"/><use transform="matrix(0.07573416272149551,0,0,0.07573416272149551,231.67080376505473,0)" xlink:href="#A"/><use transform="matrix(0.07573416272149551,0,0,0.07573416272149551,240.6831691289127,0)" xlink:href="#Q"/><use transform="matrix(0.07573416272149551,0,0,0.07573416272149551,263.32768378263984,0)" xlink:href="#z"/><use transform="matrix(0.07573416272149551,0,0,0.07573416272149551,278.47451632693895,0)" xlink:href="#R"/><use transform="matrix(0.07573416272149551,0,0,0.07573416272149551,302.70944839781754,0)" xlink:href="#H"/><use transform="matrix(0.07573416272149551,0,0,0.07573416272149551,319.2952300338251,0)" xlink:href="#D"/><use transform="matrix(0.07573416272149551,0,0,0.07573416272149551,329.89801281483443,0)" xlink:href="#S"/><use transform="matrix(0.07573416272149551,0,0,0.07573416272149551,345.04484535913355,0)" xlink:href="#T"/><use transform="matrix(0.07573416272149551,0,0,0.07573416272149551,363.2210444122925,0)" xlink:href="#H"/><use transform="matrix(0.07573416272149551,0,0,0.07573416272149551,379.8068260483,0)" xlink:href="#H"/><use transform="matrix(0.07573416272149551,0,0,0.07573416272149551,396.39260768430756,0)" xlink:href="#y"/><use transform="matrix(0.07573416272149551,0,0,0.07573416272149551,403.9660239564571,0)" xlink:href="#O"/><use transform="matrix(0.07573416272149551,0,0,0.07573416272149551,423.58117210132446,0)" xlink:href="#C"/><use transform="matrix(0.07573416272149551,0,0,0.07573416272149551,440.166953737332,0)" xlink:href="#J"/><use transform="matrix(0.07573416272149551,0,0,0.07573416272149551,456.75273537333953,0)" xlink:href="#ar"/><use transform="matrix(0.07573416272149551,0,0,0.07573416272149551,476.3678835182069,0)" xlink:href="#z"/><use transform="matrix(0.07573416272149551,0,0,0.07573416272149551,491.514716062506,0)" xlink:href="#y"/><use transform="matrix(0.07573416272149551,0,0,0.07573416272149551,499.08813233465554,0)" xlink:href="#x"/><use transform="matrix(0.07573416272149551,0,0,0.07573416272149551,514.2349648789547,0)" xlink:href="#S"/><use transform="matrix(0.07573416272149551,0,0,0.07573416272149551,529.3817974232537,0)" xlink:href="#U"/><use transform="matrix(0.07573416272149551,0,0,0.07573416272149551,538.3941627871117,0)" xlink:href="#V"/></g><g id="r"><use transform="matrix(0.07573416272149551,0,0,0.07573416272149551,0,0)" xlink:href="#B"/><use transform="matrix(0.07573416272149551,0,0,0.07573416272149551,7.573416272149551,0)" xlink:href="#C"/><use transform="matrix(0.07573416272149551,0,0,0.07573416272149551,24.15919790815707,0)" xlink:href="#A"/><use transform="matrix(0.07573416272149551,0,0,0.07573416272149551,33.171563272015035,0)" xlink:href="#z"/><use transform="matrix(0.07573416272149551,0,0,0.07573416272149551,48.31839581631414,0)" xlink:href="#D"/><use transform="matrix(0.07573416272149551,0,0,0.07573416272149551,58.921178597323504,0)" xlink:href="#E"/><use transform="matrix(0.07573416272149551,0,0,0.07573416272149551,67.93354396118147,0)" xlink:href="#x"/><use transform="matrix(0.07573416272149551,0,0,0.07573416272149551,83.08037650548057,0)" xlink:href="#F"/><use transform="matrix(0.07573416272149551,0,0,0.07573416272149551,98.22720904977967,0)" xlink:href="#z"/><use transform="matrix(0.07573416272149551,0,0,0.07573416272149551,113.37404159407878,0)" xlink:href="#G"/><use transform="matrix(0.07573416272149551,0,0,0.07573416272149551,128.52087413837788,0)" xlink:href="#M"/><use transform="matrix(0.07573416272149551,0,0,0.07573416272149551,136.09429041052744,0)" xlink:href="#F"/><use transform="matrix(0.07573416272149551,0,0,0.07573416272149551,151.24112295482655,0)" xlink:href="#K"/><use transform="matrix(0.07573416272149551,0,0,0.07573416272149551,167.82690459083406,0)" xlink:href="#K"/><use transform="matrix(0.07573416272149551,0,0,0.07573416272149551,184.41268622684157,0)" xlink:href="#N"/><use transform="matrix(0.07573416272149551,0,0,0.07573416272149551,193.42505159069952,0)" xlink:href="#N"/><use transform="matrix(0.07573416272149551,0,0,0.07573416272149551,202.43741695455748,0)" xlink:href="#aq"/><use transform="matrix(0.07573416272149551,0,0,0.07573416272149551,219.023198590565,0)" xlink:href="#D"/><use transform="matrix(0.07573416272149551,0,0,0.07573416272149551,229.6259813715744,0)" xlink:href="#H"/><use transform="matrix(0.07573416272149551,0,0,0.07573416272149551,246.21176300758188,0)" xlink:href="#x"/><use transform="matrix(0.07573416272149551,0,0,0.07573416272149551,261.35859555188097,0)" xlink:href="#J"/><use transform="matrix(0.07573416272149551,0,0,0.07573416272149551,277.9443771878885,0)" xlink:href="#F"/><use transform="matrix(0.07573416272149551,0,0,0.07573416272149551,293.0912097321876,0)" xlink:href="#x"/><use transform="matrix(0.07573416272149551,0,0,0.07573416272149551,308.23804227648674,0)" xlink:href="#G"/><use transform="matrix(0.07573416272149551,0,0,0.07573416272149551,323.38487482078585,0)" xlink:href="#A"/><use transform="matrix(0.07573416272149551,0,0,0.07573416272149551,332.3972401846438,0)" xlink:href="#P"/><use transform="matrix(0.07573416272149551,0,0,0.07573416272149551,347.46833856622146,0)" xlink:href="#D"/><use transform="matrix(0.07573416272149551,0,0,0.07573416272149551,358.0711213472308,0)" xlink:href="#x"/><use transform="matrix(0.07573416272149551,0,0,0.07573416272149551,373.21795389152993,0)" xlink:href="#C"/><use transform="matrix(0.07573416272149551,0,0,0.07573416272149551,389.80373552753747,0)" xlink:href="#G"/><use transform="matrix(0.07573416272149551,0,0,0.07573416272149551,404.9505680718366,0)" xlink:href="#x"/><use transform="matrix(0.07573416272149551,0,0,0.07573416272149551,420.09740061613576,0)" xlink:href="#F"/><use transform="matrix(0.07573416272149551,0,0,0.07573416272149551,435.2442331604348,0)" xlink:href="#A"/><use transform="matrix(0.07573416272149551,0,0,0.07573416272149551,444.2565985242928,0)" xlink:href="#B"/><use transform="matrix(0.07573416272149551,0,0,0.07573416272149551,451.8300147964423,0)" xlink:href="#H"/><use transform="matrix(0.07573416272149551,0,0,0.07573416272149551,468.41579643244984,0)" xlink:href="#C"/><use transform="matrix(0.07573416272149551,0,0,0.07573416272149551,485.0015780684574,0)" xlink:href="#U"/><use transform="matrix(0.07573416272149551,0,0,0.07573416272149551,494.01394343231533,0)" xlink:href="#V"/></g><path fill="#fff" d="M238-95c0 69-44 99-111 99C63 4 22-25 22-93v-155h51v151c-1 38 19 59 55 60 90 1 49-130 58-211h52v153" id="as"/><g id="s"><use transform="matrix(0.07573416272149551,0,0,0.07573416272149551,0,0)" xlink:href="#am"/><use transform="matrix(0.07573416272149551,0,0,0.07573416272149551,19.615148144867337,0)" xlink:href="#P"/><use transform="matrix(0.07573416272149551,0,0,0.07573416272149551,36.20092978087486,0)" xlink:href="#an"/><use transform="matrix(0.07573416272149551,0,0,0.07573416272149551,51.34776232517397,0)" xlink:href="#Q"/><use transform="matrix(0.07573416272149551,0,0,0.07573416272149551,73.99227697890112,0)" xlink:href="#z"/><use transform="matrix(0.07573416272149551,0,0,0.07573416272149551,89.13910952320022,0)" xlink:href="#R"/><use transform="matrix(0.07573416272149551,0,0,0.07573416272149551,113.37404159407879,0)" xlink:href="#T"/><use transform="matrix(0.07573416272149551,0,0,0.07573416272149551,131.5502406472377,0)" xlink:href="#H"/><use transform="matrix(0.07573416272149551,0,0,0.07573416272149551,148.1360222832452,0)" xlink:href="#H"/><use transform="matrix(0.07573416272149551,0,0,0.07573416272149551,164.72180391925272,0)" xlink:href="#y"/><use transform="matrix(0.07573416272149551,0,0,0.07573416272149551,172.29522019140228,0)" xlink:href="#N"/><use transform="matrix(0.07573416272149551,0,0,0.07573416272149551,181.3075855552602,0)" xlink:href="#N"/><use transform="matrix(0.07573416272149551,0,0,0.07573416272149551,190.31995091911818,0)" xlink:href="#O"/><use transform="matrix(0.07573416272149551,0,0,0.07573416272149551,209.93509906398552,0)" xlink:href="#J"/><use transform="matrix(0.07573416272149551,0,0,0.07573416272149551,226.52088069999303,0)" xlink:href="#J"/><use transform="matrix(0.07573416272149551,0,0,0.07573416272149551,243.10666233600054,0)" xlink:href="#as"/><use transform="matrix(0.07573416272149551,0,0,0.07573416272149551,262.7218104808679,0)" xlink:href="#C"/><use transform="matrix(0.07573416272149551,0,0,0.07573416272149551,279.3075921168754,0)" xlink:href="#aq"/><use transform="matrix(0.07573416272149551,0,0,0.07573416272149551,295.89337375288295,0)" xlink:href="#D"/><use transform="matrix(0.07573416272149551,0,0,0.07573416272149551,306.4961565338923,0)" xlink:href="#H"/><use transform="matrix(0.07573416272149551,0,0,0.07573416272149551,323.08193816989984,0)" xlink:href="#x"/><use transform="matrix(0.07573416272149551,0,0,0.07573416272149551,338.22877071419896,0)" xlink:href="#J"/><use transform="matrix(0.07573416272149551,0,0,0.07573416272149551,354.81455235020644,0)" xlink:href="#F"/><use transform="matrix(0.07573416272149551,0,0,0.07573416272149551,369.9613848945056,0)" xlink:href="#x"/><use transform="matrix(0.07573416272149551,0,0,0.07573416272149551,385.10821743880473,0)" xlink:href="#G"/><use transform="matrix(0.07573416272149551,0,0,0.07573416272149551,400.25504998310385,0)" xlink:href="#A"/><use transform="matrix(0.07573416272149551,0,0,0.07573416272149551,409.2674153469618,0)" xlink:href="#P"/><use transform="matrix(0.07573416272149551,0,0,0.07573416272149551,425.85319698296934,0)" xlink:href="#an"/><use transform="matrix(0.07573416272149551,0,0,0.07573416272149551,441.0000295272684,0)" xlink:href="#U"/><use transform="matrix(0.07573416272149551,0,0,0.07573416272149551,450.0123948911264,0)" xlink:href="#V"/></g><path fill="#fff" d="M24 0v-248h52V0H24" id="at"/><path fill="#fff" d="M-4 44V30h207v14H-4" id="au"/><g id="t"><use transform="matrix(0.07573416272149551,0,0,0.07573416272149551,0,0)" xlink:href="#T"/><use transform="matrix(0.07573416272149551,0,0,0.07573416272149551,18.17619905315892,0)" xlink:href="#z"/><use transform="matrix(0.07573416272149551,0,0,0.07573416272149551,33.32303159745803,0)" xlink:href="#z"/><use transform="matrix(0.07573416272149551,0,0,0.07573416272149551,48.46986414175713,0)" xlink:href="#D"/><use transform="matrix(0.07573416272149551,0,0,0.07573416272149551,59.07264692276651,0)" xlink:href="#Q"/><use transform="matrix(0.07573416272149551,0,0,0.07573416272149551,81.71716157649365,0)" xlink:href="#x"/><use transform="matrix(0.07573416272149551,0,0,0.07573416272149551,96.86399412079275,0)" xlink:href="#C"/><use transform="matrix(0.07573416272149551,0,0,0.07573416272149551,113.44977575680028,0)" xlink:href="#x"/><use transform="matrix(0.07573416272149551,0,0,0.07573416272149551,128.59660830109937,0)" xlink:href="#L"/><use transform="matrix(0.07573416272149551,0,0,0.07573416272149551,145.18238993710688,0)" xlink:href="#z"/><use transform="matrix(0.07573416272149551,0,0,0.07573416272149551,160.32922248140596,0)" xlink:href="#D"/><use transform="matrix(0.07573416272149551,0,0,0.07573416272149551,170.93200526241534,0)" xlink:href="#at"/><use transform="matrix(0.07573416272149551,0,0,0.07573416272149551,178.5054215345649,0)" xlink:href="#R"/><use transform="matrix(0.07573416272149551,0,0,0.07573416272149551,202.74035360544346,0)" xlink:href="#K"/><use transform="matrix(0.07573416272149551,0,0,0.07573416272149551,219.32613524145097,0)" xlink:href="#y"/><use transform="matrix(0.07573416272149551,0,0,0.07573416272149551,226.8995515136005,0)" xlink:href="#N"/><use transform="matrix(0.07573416272149551,0,0,0.07573416272149551,235.91191687745848,0)" xlink:href="#N"/><use transform="matrix(0.07573416272149551,0,0,0.07573416272149551,244.92428224131643,0)" xlink:href="#au"/><use transform="matrix(0.07573416272149551,0,0,0.07573416272149551,260.0711147856155,0)" xlink:href="#ar"/><use transform="matrix(0.07573416272149551,0,0,0.07573416272149551,279.6862629304829,0)" xlink:href="#z"/><use transform="matrix(0.07573416272149551,0,0,0.07573416272149551,294.833095474782,0)" xlink:href="#y"/><use transform="matrix(0.07573416272149551,0,0,0.07573416272149551,302.4065117469315,0)" xlink:href="#x"/><use transform="matrix(0.07573416272149551,0,0,0.07573416272149551,317.5533442912307,0)" xlink:href="#S"/><use transform="matrix(0.07573416272149551,0,0,0.07573416272149551,332.70017683552976,0)" xlink:href="#P"/><use transform="matrix(0.07573416272149551,0,0,0.07573416272149551,347.77127521710736,0)" xlink:href="#D"/><use transform="matrix(0.07573416272149551,0,0,0.07573416272149551,358.37405799811677,0)" xlink:href="#x"/><use transform="matrix(0.07573416272149551,0,0,0.07573416272149551,373.5208905424158,0)" xlink:href="#C"/><use transform="matrix(0.07573416272149551,0,0,0.07573416272149551,390.1066721784234,0)" xlink:href="#G"/><use transform="matrix(0.07573416272149551,0,0,0.07573416272149551,405.25350472272254,0)" xlink:href="#x"/><use transform="matrix(0.07573416272149551,0,0,0.07573416272149551,420.40033726702165,0)" xlink:href="#F"/><use transform="matrix(0.07573416272149551,0,0,0.07573416272149551,435.54716981132077,0)" xlink:href="#A"/><use transform="matrix(0.07573416272149551,0,0,0.07573416272149551,444.5595351751787,0)" xlink:href="#B"/><use transform="matrix(0.07573416272149551,0,0,0.07573416272149551,452.13295144732825,0)" xlink:href="#H"/><use transform="matrix(0.07573416272149551,0,0,0.07573416272149551,468.7187330833358,0)" xlink:href="#C"/><use transform="matrix(0.07573416272149551,0,0,0.07573416272149551,485.3045147193434,0)" xlink:href="#U"/><use transform="matrix(0.07573416272149551,0,0,0.07573416272149551,494.3168800832013,0)" xlink:href="#V"/></g><path fill="#fff" d="M76-208v77h127v40H76V0H24v-248h183v40H76" id="av"/><path fill="#fff" d="M24 0v-248h195v40H76v63h132v40H76v65h150V0H24" id="aw"/><path fill="#fff" d="M114-157C55-157 80-60 75 0H25v-261h50l-1 109c12-26 28-41 61-42 86-1 58 113 63 194h-50c-7-57 23-157-34-157" id="ax"/><path fill="#fff" d="M175 0L67-191c6 58 2 128 3 191H24v-248h59L193-55c-6-58-2-129-3-193h46V0h-61" id="ay"/><g id="u"><use transform="matrix(0.07573416272149551,0,0,0.07573416272149551,0,0)" xlink:href="#am"/><use transform="matrix(0.07573416272149551,0,0,0.07573416272149551,19.615148144867337,0)" xlink:href="#am"/><use transform="matrix(0.07573416272149551,0,0,0.07573416272149551,39.230296289734675,0)" xlink:href="#H"/><use transform="matrix(0.07573416272149551,0,0,0.07573416272149551,55.81607792574219,0)" xlink:href="#C"/><use transform="matrix(0.07573416272149551,0,0,0.07573416272149551,72.40185956174972,0)" xlink:href="#C"/><use transform="matrix(0.07573416272149551,0,0,0.07573416272149551,88.98764119775723,0)" xlink:href="#R"/><use transform="matrix(0.07573416272149551,0,0,0.07573416272149551,113.22257326863578,0)" xlink:href="#x"/><use transform="matrix(0.07573416272149551,0,0,0.07573416272149551,128.36940581293487,0)" xlink:href="#C"/><use transform="matrix(0.07573416272149551,0,0,0.07573416272149551,144.95518744894238,0)" xlink:href="#N"/><use transform="matrix(0.07573416272149551,0,0,0.07573416272149551,153.96755281280034,0)" xlink:href="#N"/><use transform="matrix(0.07573416272149551,0,0,0.07573416272149551,162.97991817665832,0)" xlink:href="#av"/><use transform="matrix(0.07573416272149551,0,0,0.07573416272149551,179.5656998126658,0)" xlink:href="#H"/><use transform="matrix(0.07573416272149551,0,0,0.07573416272149551,196.1514814486733,0)" xlink:href="#D"/><use transform="matrix(0.07573416272149551,0,0,0.07573416272149551,206.75426422968266,0)" xlink:href="#aw"/><use transform="matrix(0.07573416272149551,0,0,0.07573416272149551,224.9304632828416,0)" xlink:href="#x"/><use transform="matrix(0.07573416272149551,0,0,0.07573416272149551,240.0772958271407,0)" xlink:href="#F"/><use transform="matrix(0.07573416272149551,0,0,0.07573416272149551,255.2241283714398,0)" xlink:href="#ax"/><use transform="matrix(0.07573416272149551,0,0,0.07573416272149551,271.80991000744734,0)" xlink:href="#ay"/><use transform="matrix(0.07573416272149551,0,0,0.07573416272149551,291.4250581523147,0)" xlink:href="#H"/><use transform="matrix(0.07573416272149551,0,0,0.07573416272149551,308.01083978832224,0)" xlink:href="#J"/><use transform="matrix(0.07573416272149551,0,0,0.07573416272149551,324.5966214243298,0)" xlink:href="#z"/><use transform="matrix(0.07573416272149551,0,0,0.07573416272149551,339.7434539686289,0)" xlink:href="#U"/><use transform="matrix(0.07573416272149551,0,0,0.07573416272149551,348.75581933248685,0)" xlink:href="#V"/></g><g id="v"><use transform="matrix(0.07573416272149551,0,0,0.07573416272149551,0,0)" xlink:href="#am"/><use transform="matrix(0.07573416272149551,0,0,0.07573416272149551,19.615148144867337,0)" xlink:href="#ay"/><use transform="matrix(0.07573416272149551,0,0,0.07573416272149551,39.230296289734675,0)" xlink:href="#H"/><use transform="matrix(0.07573416272149551,0,0,0.07573416272149551,55.81607792574219,0)" xlink:href="#J"/><use transform="matrix(0.07573416272149551,0,0,0.07573416272149551,72.40185956174972,0)" xlink:href="#z"/><use transform="matrix(0.07573416272149551,0,0,0.07573416272149551,87.54869210604883,0)" xlink:href="#N"/><use transform="matrix(0.07573416272149551,0,0,0.07573416272149551,96.56105746990679,0)" xlink:href="#N"/><use transform="matrix(0.07573416272149551,0,0,0.07573416272149551,105.57342283376475,0)" xlink:href="#T"/><use transform="matrix(0.07573416272149551,0,0,0.07573416272149551,123.74962188692368,0)" xlink:href="#ap"/><use transform="matrix(0.07573416272149551,0,0,0.07573416272149551,140.3354035229312,0)" xlink:href="#G"/><use transform="matrix(0.07573416272149551,0,0,0.07573416272149551,155.4822360672303,0)" xlink:href="#ax"/><use transform="matrix(0.07573416272149551,0,0,0.07573416272149551,172.06801770323779,0)" xlink:href="#P"/><use transform="matrix(0.07573416272149551,0,0,0.07573416272149551,188.65379933924532,0)" xlink:href="#an"/><use transform="matrix(0.07573416272149551,0,0,0.07573416272149551,203.80063188354444,0)" xlink:href="#at"/><use transform="matrix(0.07573416272149551,0,0,0.07573416272149551,211.374048155694,0)" xlink:href="#C"/><use transform="matrix(0.07573416272149551,0,0,0.07573416272149551,227.9598297917015,0)" xlink:href="#I"/><use transform="matrix(0.07573416272149551,0,0,0.07573416272149551,243.10666233600062,0)" xlink:href="#z"/><use transform="matrix(0.07573416272149551,0,0,0.07573416272149551,258.25349488029974,0)" xlink:href="#C"/><use transform="matrix(0.07573416272149551,0,0,0.07573416272149551,274.8392765163073,0)" xlink:href="#A"/><use transform="matrix(0.07573416272149551,0,0,0.07573416272149551,283.85164188016523,0)" xlink:href="#H"/><use transform="matrix(0.07573416272149551,0,0,0.07573416272149551,300.43742351617277,0)" xlink:href="#D"/><use transform="matrix(0.07573416272149551,0,0,0.07573416272149551,311.0402062971821,0)" xlink:href="#S"/><use transform="matrix(0.07573416272149551,0,0,0.07573416272149551,326.18703884148124,0)" xlink:href="#U"/><use transform="matrix(0.07573416272149551,0,0,0.07573416272149551,335.1994042053392,0)" xlink:href="#V"/></g></defs></g></svg>